<svg width="51" height="51" viewBox="0 0 51 51" fill="none" xmlns="http://www.w3.org/2000/svg">
<path d="M24.3736 0.646454C20.7239 0.766426 17.6271 1.57466 14.7597 2.97635C11.9568 4.37693 9.54422 6.13912 7.6174 8.35848C3.95815 12.5661 0.632559 18.6176 0.967815 26.5935C1.1494 30.4816 2.23354 33.7061 3.60629 36.4675C5.01198 39.3267 6.83389 41.5904 8.97683 43.6233C13.1675 47.7191 19.0948 50.3878 26.3307 50.3457C29.8189 50.3252 33.4315 49.3167 36.1377 47.916C41.711 45.0813 45.8552 40.9369 48.1794 34.9887C49.3907 31.9159 50.1798 28.6162 50.0265 24.3311C49.9089 20.607 48.9208 17.2503 47.4835 14.3914C46.0776 11.4319 44.3529 9.23281 42.0815 7.23589C37.7945 3.37094 31.8339 0.373356 24.3736 0.646454ZM7.21612 40.831C6.37157 39.8132 5.33051 38.4356 4.6439 37.0881C2.58682 33.0125 0.390722 27.421 2.57237 18.7718C3.64651 14.5122 6.01617 10.8725 8.71408 8.08919C11.2527 5.46934 15.2763 2.94063 19.4376 1.96047C23.7943 0.913815 28.4456 0.952118 32.9436 2.40969C36.8925 3.73874 40.4288 6.32165 43.0613 9.14202C45.8876 12.1257 47.8465 15.6748 48.8415 20.3158C49.605 24.0701 49.5611 27.8937 48.7087 31.3606C47.3822 36.8072 44.4014 41.1106 40.5424 44.2645C37.2627 46.9523 33.0092 49.0219 27.6825 49.6125C26.0044 49.7878 24.1612 49.634 22.5136 49.4454C16.1446 48.6911 10.761 45.0955 7.21612 40.831ZM38.6402 39.0666C38.6715 39.0342 38.6705 38.8695 38.6385 38.8682L36.7982 38.88C31.2621 36.8682 20.9562 36.7951 14.6047 39.008L12.5696 39.0197L12.5697 39.2185L16.1241 39.1961C16.1579 39.5265 16.1594 39.8235 16.1296 40.1529L13.6737 40.1667C16.6939 43.0167 21.323 44.6398 26.0716 44.5133C30.4314 44.4207 34.5269 42.9475 37.5464 40.0284L35.2538 40.0428C35.2192 39.7466 35.2177 39.4496 35.2483 39.0859C36.2826 39.0806 37.4774 39.0402 38.6403 39.067M31.8702 35.7095C29.7381 35.7569 28.1545 35.7328 25.8615 35.745C25.846 33.0764 25.8054 31.5924 25.7934 29.2848L31.8337 29.2491L31.8702 35.7095ZM25.4743 35.7476C23.212 35.794 21.7592 35.8349 19.5302 35.782C19.4519 33.5744 19.4436 31.9251 19.4286 29.321C21.5288 29.3099 23.0788 29.3334 25.4377 29.2872L25.4743 35.7476ZM38.2572 34.224L38.2704 36.3988C33.8769 36.5892 30.0013 36.5123 25.4456 36.539C20.2449 36.5694 16.6272 36.6226 13.0738 36.5118C13.0359 35.8189 13.0318 35.0282 13.0614 34.3691L19.1667 34.3339L19.176 36.0798C21.7608 36.0996 28.0923 35.9637 32.1625 35.9403L32.1521 34.2592L38.2572 34.224ZM31.8271 27.9966L25.7868 28.0323L25.7755 26.1866C26.4488 25.3577 27.3187 24.8578 28.7071 24.8502C29.9674 24.8427 31.2939 25.3299 31.8168 26.2168L31.8268 27.9965L31.8271 27.9966ZM14.938 29.3481L16.554 29.3381C16.587 29.6347 16.6196 29.7004 16.6849 29.8317C16.9124 29.8972 17.2037 29.928 17.4926 29.7944L17.588 29.331L19.1377 29.3224C19.1796 30.9046 19.152 31.8622 19.1606 33.2463C17.7394 33.2868 16.6404 33.2936 14.605 33.2732L14.938 29.3481ZM25.4197 26.1877L25.431 28.0334L19.3892 28.0695L19.3805 26.3879C19.9899 25.5939 21.0201 24.9286 22.3763 24.8875C23.6686 24.8133 24.7365 25.3677 25.4197 26.1877ZM36.162 29.2245L36.6054 33.1447C35.0213 33.1867 33.7938 33.1612 32.146 33.1699L32.1252 29.2471L33.7396 29.2373C33.7413 29.4357 33.7749 29.5673 33.8404 29.7988C34.1643 29.8951 34.4223 29.8944 34.6484 29.7937C34.7109 29.6607 34.7431 29.4953 34.7739 29.2318L36.1623 29.2242L36.162 29.2245ZM14.0402 42.0765L13.5593 42.6732C13.7212 42.8046 13.9162 42.9353 14.1427 43.0657C13.4003 43.2342 13.3682 43.3009 13.1129 43.6646L12.4718 44.5576C14.0279 45.6704 15.0979 46.2565 17.0397 47.0695L17.6783 45.8136C18.222 44.6573 18.2216 44.4263 17.2161 43.9377C16.2122 43.4487 15.0464 42.8283 14.0402 42.0765ZM33.7391 29.008L17.5864 29.1018C17.6168 28.8367 17.6155 28.6399 17.6145 28.2766C23.2348 28.2768 28.1778 28.2165 33.733 28.2161L33.7391 29.008ZM25.4009 11.0253C26.4341 10.9844 27.1407 10.323 27.3297 9.26585C27.9127 9.62618 28.3022 9.88599 28.7558 10.2791C28.4703 11.2375 27.5381 12.0011 26.506 12.3373C25.6029 12.6391 24.2456 12.4155 23.5976 12.024C22.7862 11.5016 22.4284 11.0748 22.1017 10.286C22.39 10.0202 22.8728 9.65405 23.2593 9.38794C23.6525 10.2754 24.2707 11.0643 25.4009 11.0253ZM8.90523 36.4368C8.31794 35.5832 7.15751 36.0182 7.06443 36.7443C6.32112 36.7482 5.84024 37.3449 6.52431 38.3295C6.98064 38.9869 7.66487 39.8729 8.02186 40.2659L10.2729 38.4724L8.90523 36.4368ZM12.4815 23.1649L38.6801 23.0129L38.5532 23.4086L12.4831 23.5927L12.4811 23.1649L12.4815 23.1649ZM12.4836 23.725C30.7036 23.5527 36.3897 23.5871 38.521 23.574C38.3618 24.0042 38.0062 23.9388 37.4246 23.9434L13.6498 24.0801C12.7452 24.0849 12.5516 24.1206 12.4836 23.725ZM14.1379 24.868L21.4073 24.827C20.3741 25.0972 19.6991 25.529 18.9912 26.2911L14.1796 26.3196L14.1379 24.8683L14.1379 24.868ZM29.6365 11.7914C29.7668 12.1526 29.8023 12.6134 29.7722 12.9107C28.7132 14.2688 27.1336 14.9043 25.5193 14.9139C23.5804 14.924 21.8322 14.0452 21.0505 12.9944C21.0162 12.7304 21.0453 12.2686 21.1405 11.9718C21.8583 13.088 23.4464 14.1341 25.4816 14.1224C27.1626 14.1128 28.9025 13.3119 29.6365 11.7914ZM27.5317 45.6902L27.5683 46.4157L28.3117 46.4118C28.3134 46.8396 28.3164 47.3349 28.2846 47.5324C27.6421 48.0298 27.0924 48.0663 26.5755 48.0698L25.8972 48.0742C26.0249 47.6443 26.2153 47.1815 26.4058 46.7187C26.4715 46.5542 26.5348 46.455 26.7923 46.4526L26.9867 46.451L26.9504 45.7271C26.4985 45.7616 26.1759 45.7635 25.6259 45.7678L25.6305 46.4921L26.1795 46.49L25.6993 47.3498C25.3157 48.011 25.1867 48.0454 24.5074 47.9839L24.5332 46.6971C24.5315 46.599 24.5635 46.5 24.7264 46.4987L25.0805 46.4965L25.0438 45.771C24.8194 45.7726 24.2371 45.7434 23.7525 45.7125L23.724 46.4375L24.112 46.4683L24.0268 48.6128C24.9643 48.7057 26.3539 48.7641 27.2894 48.6265C27.9979 48.2262 28.2226 48.0274 28.7045 47.4967C28.7681 47.2002 28.7319 46.7057 28.7291 46.0132C28.7266 45.7504 28.6304 45.6517 28.3709 45.6529L27.5317 45.6902ZM22.8467 22.3121C22.7075 20.6654 22.573 19.7429 22.0836 18.8568C22.1755 17.866 21.7852 17.3736 21.6844 16.7815L21.7489 16.6497C22.0757 17.4386 22.4994 18.0304 23.1477 18.454C23.2773 18.5521 23.4404 18.6508 23.3748 18.7167C23.3436 18.7492 23.1818 18.8165 22.923 18.6528C23.0219 18.9837 23.4423 19.1788 23.7022 19.3406C23.8318 19.4387 23.704 19.539 23.541 19.5403C23.1534 19.5414 22.8627 19.346 22.635 19.2482C23.1555 19.971 24.3891 20.7883 25.5532 21.0117C25.8768 21.0758 26.1669 21.139 26.2318 21.2382C26.3627 21.5024 25.2002 21.508 24.7801 21.3451C24.554 21.4457 25.2328 21.5736 25.0723 21.6083C24.8131 21.6418 24.3281 21.4477 24.0039 21.2512C23.8104 21.4175 24.5215 21.5788 24.2959 21.613C23.9405 21.6479 23.65 21.583 23.3268 21.4524C24.1389 22.306 25.3664 22.3315 26.5619 22.4237C26.9501 22.4867 27.4345 22.4176 27.5318 22.681C25.8537 22.8563 24.6583 22.7638 22.8467 22.3121ZM32.3659 26.2145C31.5864 25.4265 31.035 25.0353 30.1277 24.7758L36.7504 24.7385L36.7587 26.1891L32.3659 26.2145ZM45.8715 15.0921C45.0017 15.4933 44.1006 16.0257 43.198 16.4599L43.4271 16.9532L44.7484 16.2863C44.9441 16.6802 45.1077 16.9421 45.2387 17.337L44.0177 18.4329L44.2469 19.057L45.4994 17.83C45.9572 18.7844 47.2132 18.2156 46.8856 17.2622C46.5905 16.3744 46.3944 15.979 45.8715 15.0921ZM32.4967 3.3691C32.1736 3.23855 32.1405 3.2394 31.7207 3.10861L31.4976 3.80313L32.1778 4.02924C32.1139 4.29349 31.9222 4.55949 31.664 4.75745L29.8147 3.28477L29.6824 2.69305C29.3265 2.59547 29.0682 2.56403 28.6484 2.5013L28.4899 3.19473L29.5893 3.41917C30.3035 4.10646 30.986 4.79409 31.7017 5.54896C30.5686 5.1929 29.405 4.90316 28.2725 4.67948C28.1763 4.9103 28.1136 5.14194 28.0818 5.33947C29.3443 5.59475 30.7984 5.94937 31.9641 6.37107C32.1239 6.07319 32.1886 5.8427 32.2826 5.47995C32.1194 5.25032 31.9906 5.11811 31.8269 4.95489L32.3414 4.48984C32.5354 4.32516 32.6296 4.0932 32.7251 3.82862C32.8205 3.56403 32.6906 3.43382 32.4967 3.3691ZM5.77884 14.633C5.33132 15.5585 5.0776 16.1206 4.72612 17.1432L5.08311 17.3068C5.40213 16.5787 5.78361 15.5561 6.19958 14.8603L6.68539 15.0881C6.33515 15.8488 5.92009 16.7091 5.63358 17.5335L6.3787 17.8587C6.69601 17.0002 7.01544 16.2736 7.43157 15.4793L7.91739 15.7071C7.53462 16.6009 7.0557 17.6575 6.76946 18.582C5.79996 18.2584 4.89282 17.9004 3.95381 17.5104C4.33578 16.4215 4.78117 15.364 5.2926 14.4037L5.77884 14.633ZM7.89424 34.762C7.5024 33.9727 7.10845 33.0514 6.71752 32.1973L6.20057 32.4302C6.56191 33.2858 6.85589 33.8782 7.18281 34.5684L6.4736 34.935C6.11407 34.1791 5.75437 33.5218 5.49226 32.7319L5.00884 32.9657L5.95862 35.1691L5.50706 35.4347C5.31168 35.073 4.72169 33.7257 4.52466 33.1656L4.07401 33.3664C4.50134 34.6165 4.85948 35.2742 5.3181 36.1944C6.28421 35.6931 6.92754 35.3603 7.89424 34.762ZM43.9393 39.1667L41.5702 37.3025L41.25 37.7658L42.9375 39.1071L41.4195 39.2155L41.6215 40.8294L39.8697 39.3226L39.4841 39.7533L41.8534 41.7178C42.0141 41.5844 42.1745 41.419 42.303 41.2216L42.0681 39.7393L43.6187 39.6966L43.9393 39.1667ZM22.1544 2.47178C21.7029 2.50799 21.3479 2.57494 20.9933 2.64355L21.0932 3.26982C21.3831 3.20225 21.6087 3.16817 21.899 3.13289C21.8693 3.46236 21.8387 3.82605 21.2597 4.12559C19.8672 3.77074 18.8021 3.81031 17.6702 3.42163L17.5738 3.52167C17.7378 4.01447 17.997 4.21048 18.4502 4.37262C18.0648 4.90348 18.3601 5.69264 18.5903 6.38271C18.9451 6.21553 19.1381 6.11567 19.5895 5.94866L19.2963 5.39006L18.7477 5.6233C18.6497 5.29558 18.5158 4.73489 18.8053 4.43642C20.8758 4.75464 21.6816 4.61766 22.3639 5.27309L22.5241 5.20613C22.3931 4.71259 22.1341 4.51656 21.6801 4.32064C22.1311 3.92264 22.4507 3.32692 22.1544 2.47178ZM46.0829 35.6276L43.4278 34.2919C43.0123 35.1507 42.5952 35.7805 42.0828 36.6069L42.5376 36.9674C43.0187 36.2721 43.3698 35.676 43.7226 35.0489L44.4014 35.4062C44.0832 36.1001 43.7321 36.6962 43.3152 37.4568L43.7698 37.7171L44.9208 35.6348L45.342 35.8637C44.9919 36.7551 44.7029 37.186 44.2551 38.0113L44.6774 38.3061C45.2541 37.4465 45.6372 36.6529 46.0829 35.6276ZM47.7789 26.6521C47.8051 25.5963 47.8333 24.9699 47.7646 24.2125L45.8715 26.5635L45.2895 26.5664C45.3484 25.5457 45.3443 24.687 45.3052 23.568C45.4992 23.5341 45.6605 23.5331 45.8865 23.5311C45.9555 24.2221 45.9587 24.9162 45.9308 25.5748C46.508 24.8782 47.021 24.1842 47.5667 23.4878L48.245 23.4832C48.3796 24.6044 48.3859 25.5271 48.3264 26.6822L47.7787 26.6517L47.7789 26.6521ZM4.2515 24.5963L5.63575 23.798L5.66482 23.1373C4.57037 23.7373 3.57073 24.2378 2.63755 24.8369C2.60839 25.2987 2.60986 25.5957 2.64292 25.8923C3.97319 26.9392 5.27025 27.788 5.75607 28.0158L5.6886 27.3244C5.13755 26.9653 4.74794 26.7361 4.19582 26.3111C4.19221 25.6528 4.22185 25.1245 4.2515 24.5963ZM6.45281 31.3418C6.18932 30.4537 5.95893 29.5649 5.79181 28.5768L5.24314 28.6793C5.31109 29.3043 5.47673 29.9954 5.60836 30.5228L3.37144 29.0514L2.85588 29.1531C3.02326 30.2414 3.35198 31.2607 3.64728 32.2487L4.19611 32.0476C3.96539 31.356 3.76821 30.6651 3.56937 29.776C4.02241 30.0367 5.61197 31.181 6.03494 31.5096L6.45281 31.3418ZM16.7762 46.1815C15.3852 45.5968 14.5744 45.1387 13.374 44.29L13.6619 43.7932C13.8537 43.4966 14.0154 43.4293 14.5315 43.2612L16.9622 44.5984C17.318 44.7946 17.4163 44.9251 17.2248 45.3219L16.7762 46.1815ZM22.1034 45.5244C20.7454 45.2363 20.3249 45.1398 19.4176 44.8804L19.5139 44.551C19.5774 44.3531 19.4797 44.287 19.3827 44.2546L18.801 44.0604L18.6089 44.6222L18.9328 44.7185L18.742 45.3785C19.9071 45.7358 21.0399 45.9917 21.7187 46.1196C22.2044 46.2166 22.1074 46.1842 22.0452 46.5788C22.0452 46.5788 21.0124 46.6519 20.4942 46.688C20.0758 46.7235 19.6561 46.7915 19.496 47.2866L19.3374 47.7812C19.5967 47.8787 19.791 47.9449 20.1146 48.0091L20.2728 47.5129L19.8534 47.3837C19.8841 47.2188 20.0446 47.1841 20.1744 47.1835L22.4677 47.2031L22.6242 46.2792C22.7179 45.6854 22.5571 45.6201 22.1034 45.5244ZM31.4139 17.6156C31.4478 18.0768 31.6118 18.5696 31.2608 19.2964C31.0068 19.8263 30.845 19.8936 30.6843 20.2563C30.1039 20.4577 29.1359 20.431 29.2671 20.9567C29.3334 21.154 29.625 21.2849 29.8509 21.2829C29.4305 21.0878 29.4613 20.8243 29.6543 20.7244C29.9117 20.5913 33.3025 20.3075 33.9967 17.3368C33.5503 18.3282 33.2301 18.7916 32.3259 19.0275C31.907 19.1294 31.4538 18.9671 31.8724 18.8331C32.6133 18.5971 33.2246 17.8348 33.3192 17.4056C32.9974 17.8694 32.6445 18.1363 32.1268 18.1061C32.0302 18.106 31.8355 18.0075 32.125 17.9077C32.6092 17.7078 32.9303 17.409 33.1203 16.7152C32.7366 17.2457 32.3802 17.2145 32.509 17.0493C32.7003 16.7511 32.7963 16.4201 32.8245 15.7937C32.0862 16.6221 31.3762 16.8241 31.4139 17.6156ZM16.6736 27.5574L16.5788 28.0852L15.0607 28.0933L15.2148 26.7078L19.1237 26.6852L19.1308 28.0698L17.5795 28.0788C17.5468 27.8824 17.5462 27.75 17.4799 27.5527C17.1575 27.4559 16.9635 27.4899 16.6736 27.5574ZM13.2645 24.7417C13.1363 24.7417 13.039 24.6772 13.0054 24.5456L37.7824 24.4021C37.719 24.5999 37.5893 24.6005 37.4611 24.6007L13.2645 24.7417ZM34.7335 27.9803L34.666 27.5182C34.4075 27.4545 34.0206 27.4897 33.8265 27.5238L33.7658 27.986L32.1179 27.9948L32.1091 26.6107L35.8568 26.589L35.9937 27.973L34.7334 27.9805L34.7335 27.9803ZM45.1987 27.7539C45.6856 28.0476 46.106 28.2427 46.6252 28.5699L46.4376 29.7252L44.8227 29.8013L44.7291 30.395L47.8954 30.2114C47.9899 29.7822 48.0834 29.2871 48.1127 28.7266L45.2609 27.1605L45.1987 27.7539ZM37.8142 24.3032L12.972 24.446L12.908 24.2821C20.8538 24.1366 28.2512 24.1938 37.8779 24.1373L37.8142 24.3032ZM47.6115 31.5975L44.7002 30.889C44.4152 31.781 44.0963 32.6399 43.7775 33.4988C44.4901 33.8892 45.0087 34.084 45.5923 34.3779L45.8152 33.85C45.3601 33.5881 44.9723 33.4587 44.5193 33.1979C44.7415 32.6362 44.9007 32.206 45.0925 31.612L47.4532 32.1923L47.6115 31.5975ZM35.7938 44.2242L36.6762 45.9349L37.0603 45.4367L35.983 43.5646C35.7227 43.1038 35.4322 43.1069 35.0134 43.3396C34.3373 43.7054 33.2094 44.274 31.8868 44.7747L32.149 45.466C33.6981 44.8969 34.3422 44.5298 35.2432 44.0961C35.4693 43.9955 35.6295 43.9286 35.7938 44.2242ZM36.0216 38.8843L35.2468 38.8886C31.2027 37.8564 29.1678 37.7695 25.678 37.7904C20.2509 37.8212 16.1874 38.9983 16.1874 38.9983L15.3148 39.0045C21.7982 37.1524 29.7775 37.0076 36.0216 38.8843ZM47.4464 19.2698C46.3492 19.6055 45.8009 19.7402 44.6401 20.1429C44.8382 20.9983 45.0052 21.8556 45.1383 22.6119C46.3006 22.506 47.1084 22.3703 48.1086 22.2316L48.0089 21.7055C47.1696 21.8417 46.5555 21.9115 45.6527 22.0161C45.5519 21.5226 45.4849 20.9942 45.3524 20.5011C46.0307 20.2672 46.7716 20.0312 47.5783 19.8294L47.4464 19.2698ZM4.64006 18.9563L4.44987 19.5193L5.67867 19.9403C5.52116 20.5009 5.33038 21.1609 5.23747 21.7884L2.90879 21.4388L2.81554 22.0341L5.72534 22.4455C5.91357 21.4226 6.10302 20.5965 6.38712 19.54L4.64006 18.9563ZM8.31203 11.1563L7.99062 11.6523L9.22378 12.536L8.23078 13.9913L6.25187 12.718L5.96431 13.247C6.90497 13.8353 7.52174 14.2592 8.46134 14.7815C8.94057 13.9865 9.51717 13.2255 9.99838 12.4316L8.31203 11.1563ZM40.7062 9.8479C40.609 9.71539 40.4791 9.58515 40.3169 9.4215C40.0277 9.75216 39.4168 10.3172 38.9669 10.7812C39.6484 11.4028 40.0074 11.7969 40.4608 12.2887L42.712 10.3966L42.3227 9.9702C41.711 10.5015 41.1002 10.9986 40.4897 11.4972L39.7425 10.7427L40.7062 9.8479ZM28.3055 22.1822C27.9173 22.25 27.7887 22.3165 27.6607 22.4169C27.2719 22.2215 27.1104 22.3209 26.6252 22.2256C27.3353 22.0236 27.8823 21.7228 28.3636 21.1277C28.0102 21.3931 27.6556 21.691 27.01 21.7611C26.8175 21.7945 27.1389 21.596 27.106 21.4301C26.6875 21.763 26.1719 21.8647 25.7818 21.7019C26.9125 21.5963 26.232 21.0407 26.232 21.0407C27.328 20.7377 28.1001 20.2396 28.7751 19.6091C28.4904 20.5332 28.3659 21.3905 28.3055 22.1822ZM29.4074 11.1995C29.7006 11.5593 29.0895 12.223 28.7359 12.5869C27.837 13.45 26.644 13.8193 25.4484 13.8257C23.7689 13.8348 22.149 12.9556 21.4975 12.0367C21.3338 11.8055 21.139 11.5762 21.3322 11.3777C22.2118 12.6254 23.7351 13.5724 25.512 13.5292C27.191 13.5184 28.5754 12.6216 29.4074 11.1995ZM7.41302 29.7207C7.37979 29.5227 7.37921 29.3903 7.37921 29.3903L14.7448 29.3476L14.7464 29.6446L12.9376 29.6562C10.9987 29.6663 9.99863 29.7067 7.41304 29.721M36.3563 29.2229L43.787 29.1809C43.7876 29.3134 43.7551 29.3785 43.7234 29.4774L36.3909 29.5192L36.3563 29.2229ZM30.8291 46.199C30.9947 46.8902 31.0293 47.1864 31.2282 48.0756L31.679 47.7762L31.0845 45.538C30.9859 45.1765 30.8234 45.1114 30.565 45.1786L29.6624 45.414L29.7957 46.1397L30.473 45.9707C30.6671 45.9368 30.7633 45.9354 30.8291 46.199ZM8.82225 38.9426C8.49575 38.4834 8.04049 37.8919 7.77971 37.4975C7.16055 36.612 8.03152 36.1782 8.454 36.8026L9.56137 38.3774L8.82225 38.9426ZM7.53105 27.742L12.3158 22.2749L12.3482 22.4391L8.11305 27.739L7.53105 27.742ZM42.8409 27.5367L38.5473 22.2888L38.5775 22.1223L43.4214 27.5341L42.8409 27.5364L42.8409 27.5367ZM29.1224 17.9252C29.0293 18.6513 29.1613 19.2108 28.549 19.6097C28.2913 19.7107 28.5806 19.312 28.6763 19.1476C28.1936 19.6446 26.8063 19.7181 27.2894 19.4522C27.8684 19.1527 28.4828 19.1151 28.673 18.5215C27.9966 18.8551 27.1221 18.5626 27.574 18.3293C28.2499 18.0621 28.733 17.7962 29.3104 17.0009L29.3427 17.0343C29.2153 17.2976 29.1515 17.4633 29.1224 17.9252ZM37.2879 34.0309C35.5441 34.0733 34.0895 34.0826 32.1518 34.06L32.1503 33.7631C33.6681 33.7227 34.9272 33.7481 37.092 33.7356L37.2879 34.0309ZM27.4477 24.791C26.4487 25.1265 26.2232 25.3594 25.612 25.8243C25.2548 25.53 24.8007 25.2033 23.8297 24.8121L27.4477 24.791ZM19.1632 33.8384L19.1647 34.1353C17.6142 34.1781 14.837 34.1611 14.0291 34.1662L14.2204 33.868C16.4171 33.8875 17.2244 33.8182 19.1632 33.8384ZM7.6254 21.3467L11.9394 18.6841L11.9409 18.8824L7.49901 21.8748L7.6254 21.3467ZM43.3895 21.6669L38.9145 18.7262L38.9128 18.5279L43.2578 21.1395L43.3895 21.6669ZM8.11397 39.4738C7.52882 38.7521 7.3014 38.4572 6.77983 37.6684C6.55167 37.3397 6.87381 37.1069 7.13427 37.4691C7.65477 38.1918 8.01208 38.617 8.46734 39.2084L8.11397 39.4738ZM16.8039 27.788C16.9328 27.7535 17.1585 27.7194 17.3208 27.7843C17.4206 28.2118 17.4885 29.1342 17.3311 29.5962C17.2021 29.6304 17.008 29.6644 16.8457 29.5994C16.6837 29.3372 16.7089 28.2156 16.8039 27.788ZM25.679 20.5498C25.5509 20.5499 25.4208 20.5184 25.3239 20.486L25.4891 15.3098L25.5853 15.308L25.679 20.5494L25.679 20.5498ZM33.9899 27.7534C34.119 27.7192 34.3122 27.7195 34.5069 27.7498C34.5733 28.1458 34.675 29.1012 34.5159 29.5637C34.4203 29.6295 34.1609 29.6306 34.0321 29.5664C33.8696 29.3026 33.8952 28.1825 33.9897 27.7533M37.4939 42.1396C37.3966 42.0071 37.2994 41.9425 37.1067 42.0745L36.3981 42.5735L36.7898 43.164L37.2719 42.8321C37.369 42.7658 37.4641 42.6984 37.5629 42.8306L37.8878 43.2903L38.0797 42.9256L37.4939 42.1396ZM36.9617 33.5051C36.9617 33.5051 33.1813 33.5598 32.1489 33.5662L32.1472 33.3679C33.6015 33.3265 34.2467 33.3229 36.8307 33.3088L36.9617 33.5051ZM41.6476 16.4343L38.1824 14.9717L38.1173 14.7418L41.3536 15.9099L41.6476 16.4343ZM9.40525 16.0945L12.6285 14.889L12.5658 15.1206L9.11769 16.6235L9.40525 16.0945ZM19.1618 33.6415L14.3167 33.6691L14.4448 33.4702L19.1602 33.443L19.1618 33.6415ZM45.6499 15.7858C46.0743 16.442 46.2385 17.035 46.4022 17.4956C46.5332 17.8905 46.0177 17.9922 45.9195 17.6951C45.7214 17.1371 45.4928 16.5774 45.1996 16.0188L45.6499 15.7858ZM20.6939 12.8324C20.3034 12.4386 19.3346 12.3782 19.1413 12.4458C19.3288 11.3892 20.688 11.8434 20.6939 12.8324ZM11.8606 27.7172L13.558 25.2017L13.7524 25.1999L12.2478 27.7142L11.8606 27.7172ZM38.7044 27.5615L37.173 25.0654L37.3674 25.0636L39.0931 27.5581L38.7044 27.5615ZM24.4864 15.2162L23.9589 18.9441C23.7965 18.879 23.7962 18.8468 23.7316 18.7799L24.3579 15.1842L24.4864 15.2162ZM26.5218 15.2367L26.6197 15.2042L27.3179 19.0565L27.0926 19.1229L26.5218 15.2367ZM18.5293 12.877C18.9169 12.6768 19.337 12.8397 19.6934 12.8709C19.1438 13.0382 19.2433 13.4334 18.4672 13.4703L18.5293 12.877ZM22.6562 17.2371C22.5597 17.1383 22.4937 17.0412 22.4603 16.9418L23.1924 14.8934L23.3229 14.9265L22.6562 17.2371ZM20.5733 14.4482C20.4118 14.349 20.1858 14.351 20.0872 14.1203C20.2156 14.0215 20.2804 13.9218 20.474 13.9543C20.472 13.525 20.5023 13.3279 20.7288 13.1608C20.7308 13.6888 20.7972 14.0168 20.9295 14.3792C20.7997 14.3798 20.7023 14.4137 20.5733 14.4482ZM27.9726 14.7666L28.9538 16.8388L28.7618 17.0046C28.4665 16.3141 28.1393 15.5237 27.8767 14.8002L27.9726 14.7666ZM3.18878 25.0973L3.67146 24.8298L3.67769 26.0498L3.19172 25.6912L3.18878 25.0973ZM14.1291 11.4857C13.3867 11.6542 12.9671 11.7223 12.5153 11.8571L13.0306 11.4258C13.5462 11.3242 13.9331 11.289 14.3528 11.2209L14.1291 11.4857ZM36.1917 11.0935C36.612 11.1578 36.9995 11.1872 37.5167 11.2838L38.0357 11.7096C37.5829 11.5796 37.1615 11.5173 36.4188 11.3563L36.1917 11.0935ZM47.5652 28.9938C47.5344 29.2573 47.5033 29.4886 47.4398 29.6865L46.9544 29.6897L47.1109 28.7658L47.5652 28.9938ZM30.1568 12.4141C30.4461 12.2142 31.1896 12.1117 31.5771 12.2089C31.6089 12.2408 31.61 12.3067 31.6426 12.3724C31.4487 12.3077 30.4806 12.3798 30.0947 12.7781C30.094 12.6457 30.094 12.5455 30.1568 12.4141ZM38.5319 8.11288C37.8236 8.41461 38.9898 9.19807 38.9541 8.40773C38.9524 8.20937 38.7264 8.0126 38.5319 8.11288ZM39.7561 42.1921C39.9133 41.5313 38.9769 41.5043 39.174 42.1951C39.3685 42.3922 39.5618 42.3246 39.7561 42.1921ZM10.9382 41.7988C11.3252 41.8946 11.4214 41.6637 11.4198 41.4653C11.3198 40.907 10.3856 41.3721 10.9382 41.7988ZM10.5614 9.13261C10.8855 9.1303 11.0454 9.03131 11.0438 8.8329C11.0743 8.23981 10.0099 8.54256 10.5614 9.13261ZM30.1283 13.0085C30.1254 12.6133 31.1907 12.4752 31.5464 12.4726C31.6761 12.4719 31.6764 12.5041 31.6763 12.6028C31.257 12.6724 30.5786 12.7755 30.1283 13.0085ZM20.6625 13.0622C20.2102 12.8353 19.5301 12.7399 19.1099 12.6756C19.11 12.577 19.1098 12.5449 19.239 12.5426C19.5936 12.5424 20.6611 12.6667 20.6625 13.0622ZM31.5119 12.0775C30.9301 11.9819 30.4467 12.1478 30.2213 12.2821C30.5089 11.7531 31.1862 11.5841 31.5119 12.0775ZM35.0022 6.35386C35.2613 6.54987 35.5502 6.4164 35.4844 6.15275C35.4828 5.8558 34.9021 5.82619 35.0022 6.35386ZM31.5163 12.7697C31.7112 13.1297 32.0025 13.2284 32.2939 13.2591L32.3276 13.3906C31.5524 13.3627 31.6458 12.9662 31.0959 12.8039C31.2569 12.7708 31.355 12.7704 31.5163 12.7697ZM23.4634 11.1337C23.5274 11.0683 23.7521 10.8695 23.7515 10.7371C23.6868 10.7382 23.6858 10.6722 23.5891 10.672C23.4621 10.9369 23.1709 11.037 23.0762 11.3354L23.1404 11.4007C23.334 11.3652 23.3014 11.2997 23.4634 11.1337ZM31.6121 12.736C31.8393 12.7014 32.0321 12.7001 32.2599 12.7978L32.2932 13.1266C32.0019 13.0959 31.7438 12.966 31.6121 12.736ZM27.2745 11.1129C27.1773 10.9804 27.0774 10.6515 26.8528 10.7516C27.0483 11.0147 27.3422 11.7057 27.6317 11.4072C27.4367 11.2766 27.4371 11.3087 27.2745 11.1129ZM26.595 10.9512C26.5649 11.2484 26.7934 11.6094 26.9551 11.8394C27.0198 11.8383 27.0838 11.7728 27.0843 11.7064C26.8574 11.5439 26.8554 11.1146 26.595 10.9512ZM23.7889 11.7256C23.7557 11.5276 24.1418 11.2293 24.0429 10.9664C23.7859 11.1318 23.6912 11.4301 23.5629 11.7277C23.5631 11.7598 23.7242 11.7268 23.7889 11.7256ZM26.3053 11.1188C26.3055 11.1511 26.2413 11.1842 26.2097 11.1846C26.3084 11.5461 26.3732 11.7438 26.3759 12.0081C26.4078 12.04 26.5055 12.1062 26.6011 11.9724C26.4385 11.8752 26.5001 11.3481 26.3053 11.1188ZM27.9206 10.9764C27.7577 10.779 27.4644 10.5177 27.2384 10.321C27.272 10.75 27.6603 10.813 27.8238 11.1428L27.9206 10.9764ZM23.2966 10.3765C23.1039 10.5765 22.7173 10.6438 22.6214 10.9748C22.9124 10.9733 23.1039 10.5765 23.3947 10.4748C23.3944 10.4427 23.3617 10.3771 23.2966 10.3765ZM24.949 11.2585C24.9187 11.4555 24.6299 12.0172 24.8576 12.1149C24.9533 11.9505 25.1127 11.4217 24.949 11.2585ZM25.4994 11.2864C25.4347 11.2875 25.4019 11.3204 25.403 11.3864C25.4368 11.7168 25.4382 12.0138 25.3105 12.2449C25.4074 12.2773 25.5036 12.2759 25.5364 12.2429C25.5031 11.9141 25.5323 11.583 25.4994 11.2864ZM24.4355 11.7215L24.561 11.2277C24.3365 11.3278 24.2425 11.8214 24.2426 12.0202C24.3396 12.0526 24.405 12.0853 24.4355 11.7215ZM25.8216 11.2524C25.9207 11.6155 25.8266 12.0768 26.0861 12.2065C26.0185 11.911 25.9211 11.6477 26.0162 11.3509C25.9829 11.2514 25.9825 11.2194 25.8216 11.2524ZM29.099 13.9689L29.1961 13.9026L29.5541 14.3615C29.4567 14.3955 29.3931 14.4626 29.3931 14.4626L29.099 13.9689ZM20.2117 13.2629C20.0174 13.2647 20.1788 13.1651 20.0168 13.1323C19.9218 13.3304 20.1154 13.363 20.2127 13.4275L20.4044 13.1309C20.2752 13.0651 20.0823 13.0664 20.0169 13.0337C19.9856 13.1648 20.2752 13.0651 20.2761 13.2297C20.2114 13.2308 20.2761 13.2296 20.2117 13.2629ZM30.5817 13.2025C30.5163 13.1697 30.5815 13.1703 30.5163 13.1697C30.5154 13.0052 30.8063 13.1024 30.7746 12.9718C30.7098 13.0035 30.5154 13.0053 30.3868 13.0717L30.5826 13.367C30.6782 13.3012 30.8723 13.2673 30.7744 13.0704C30.6134 13.1034 30.7745 13.2012 30.5817 13.2025ZM30.2331 14.3908C30.1031 14.3593 30.0061 14.3269 29.8764 14.3275C30.0036 13.964 30.0664 13.6338 30.0634 13.1079C30.2918 13.2699 30.325 13.468 30.3266 13.8958C30.5207 13.8618 30.5856 13.961 30.7152 14.059C30.6194 14.2914 30.393 14.2918 30.2331 14.3908ZM26.5703 6.59951C26.4742 6.73166 26.4105 6.89738 26.3806 7.09605C25.8283 6.76961 24.9245 6.80825 24.3455 7.10781C24.3123 6.90979 24.2464 6.74469 24.1479 6.61419C24.7937 6.44551 25.8924 6.40676 26.5703 6.59951ZM26.7759 8.64226C26.3214 8.28336 26.0271 7.65876 26.8668 7.55481C26.2811 6.70074 27.2804 6.39751 27.8295 6.29664C26.3095 5.97572 24.3378 6.019 22.8862 6.32463C23.4365 6.42059 24.4388 6.71119 23.8624 7.57244C24.7034 7.66525 24.4161 8.29446 23.9659 8.65824C22.6154 9.78693 21.1319 10.2901 20.7546 12.1714C20.5913 11.9417 20.2673 11.6466 19.6224 11.7505C19.0402 11.8522 18.9457 12.2813 18.8523 12.6778C18.626 12.678 18.5293 12.7461 18.3668 12.7796C18.2733 13.2748 18.3721 13.5377 18.1488 14.132C18.074 12.1546 18.7106 10.6682 20.0931 9.47275C20.3509 9.27322 20.1579 9.37306 20.0605 9.40705C18.5481 10.4043 17.5891 12.0914 17.894 14.628C17.9284 15.0228 18.4395 14.0303 18.4691 13.57C18.6304 13.5691 18.856 13.5348 19.1468 13.4332C19.0502 13.6318 19.0205 13.9612 19.0548 14.2252C18.6656 14.2268 18.7962 14.391 18.8285 14.4245C19.4103 14.3213 19.7671 14.5834 19.9007 15.3413C20.0612 15.3066 20.3213 15.4378 20.3525 15.4052C20.3525 15.4052 20.2554 15.174 19.9641 15.1434C19.8651 14.6817 19.7006 14.2553 19.2476 14.2239C19.1165 13.829 19.1142 13.3674 19.3387 13.2673C19.4061 13.5305 19.6007 13.629 19.6975 13.76C19.7289 13.6288 19.4378 13.4316 19.4355 13.1688C19.7897 12.8693 20.2735 12.8665 20.566 13.1618C20.4064 13.3611 20.3094 13.5581 20.3109 13.8551C20.1824 13.8231 20.0851 13.7586 20.0199 13.6272C19.8272 13.7593 20.1173 13.8226 20.1832 13.8568C20.119 14.0209 19.73 13.924 19.6341 13.9577C19.6342 14.0578 19.7322 14.2548 19.8296 14.2208C19.9898 14.1538 19.7319 14.1546 19.7964 14.0227C19.8934 14.0551 19.892 13.957 19.9893 14.0214C19.9261 14.3195 20.2505 14.3494 20.3488 14.5479C20.1223 14.6469 20.1235 14.9117 20.5755 14.8091C20.2546 15.0093 20.1254 15.1422 20.2878 15.2073C20.3847 15.2396 20.6103 15.2055 20.8033 15.1056C20.5789 15.3366 20.5152 15.5022 20.6121 15.5346C20.7091 15.567 20.7734 15.5337 20.8374 15.4682C20.8704 15.566 20.9678 15.5321 21.0637 15.4984C21.2574 15.4324 21.4204 15.6297 21.6128 15.3976C21.419 15.4636 21.1925 15.3333 20.9995 15.4331C20.9352 15.4664 20.8698 15.4337 20.9023 15.3686C20.9343 15.3019 21.2242 15.2343 21.1916 15.1687C20.9009 15.2024 20.8051 15.4348 20.7085 15.4346C20.5141 15.4364 20.997 15.0702 20.8682 15.006C20.6741 15.0399 20.448 15.1405 20.351 15.1081C20.1887 15.043 20.7047 14.875 20.7042 14.7426C20.7039 14.7105 20.5749 14.7451 20.4136 14.746C20.3169 14.7459 20.2528 14.6806 20.3171 14.6473C20.7037 14.512 20.9295 14.3792 21.1887 14.5752C21.3828 14.7401 21.6737 14.8372 21.7084 15.0348C21.807 15.4949 21.8446 16.385 21.6825 16.4201C21.6146 15.7271 21.5166 15.6288 21.5173 15.6626C21.4846 15.6955 21.586 16.3214 21.5534 16.4851C21.5235 16.6838 21.3946 16.849 21.1699 17.0477C20.3611 16.8882 19.8091 16.3645 19.0633 16.0056C19.0317 16.006 19.0315 16.1046 19.0315 16.1046C19.81 16.5292 20.3953 17.1523 21.1716 17.2461C21.3649 17.1785 21.4278 17.047 21.5882 16.8815C21.6226 17.2763 21.9496 17.9666 21.8568 18.4955C21.4656 18.0679 21.4654 17.9371 20.4297 17.5471C20.4297 17.5471 20.3326 17.6133 20.3984 17.6782C22.0811 18.2951 22.4119 19.7438 22.5229 22.2158C22.0377 22.1204 21.2297 22.1254 21.1287 21.4332C21.4197 21.4316 21.6788 21.4289 21.7737 21.2307C21.9014 20.8688 21.3192 20.673 20.703 20.3814C20.4408 19.6901 19.892 19.5938 19.8232 18.8042C19.7877 18.2754 19.915 18.1107 19.849 17.7162C19.7482 16.9254 19.0365 16.929 18.6778 16.3377C18.7434 16.5012 18.5852 16.9974 18.4561 17.1304C18.5885 17.6235 18.7197 17.9199 19.0757 18.2468C19.3355 18.4766 19.2729 18.7083 18.6572 18.2824C18.9825 18.7742 19.5329 19.0689 19.1772 19.0715C18.4024 19.0758 17.5236 17.9927 17.1979 17.4993C17.1979 17.4993 17.0028 17.2378 17.1341 17.5342C17.7879 18.9147 18.6654 19.733 20.2514 20.4484C20.9654 20.7755 21.7085 20.8702 21.7082 21.0674C21.712 21.6271 19.5764 21.0786 18.7023 20.7881C20.6191 22.6548 22.0063 22.2516 22.9768 22.6412C19.3942 22.9923 17.7043 21.2881 17.2492 20.7968C17.2492 20.7968 17.152 20.6643 17.2168 20.8619C17.4141 21.4541 18.2901 22.0435 19.4884 22.7602C19.1023 22.8292 18.326 22.7352 17.8081 22.3754C16.8351 21.7537 16.3807 21.3948 15.5986 20.3118C16.0577 21.463 16.6729 21.8874 17.5184 22.7725C16.5501 22.943 15.9968 22.2532 15.7044 21.8592C15.6061 21.7286 15.7376 22.0572 15.7703 22.1228C15.9341 22.4848 16.096 22.6163 16.3879 22.7794C15.6125 22.8501 15.1248 22.0943 14.7985 21.7659C14.7985 21.7659 14.7343 21.7005 14.7354 21.7668C14.9318 22.1944 15.191 22.3904 15.4833 22.7844C14.708 22.8552 14.5124 22.5921 14.0202 21.0135C14.0195 20.9797 13.9548 20.9808 13.9551 21.0128C14.0242 21.9026 14.3178 22.264 14.6118 22.7884C13.7732 22.9583 13.4451 22.0713 13.241 20.3255C13.2394 20.2273 13.1761 20.2264 13.1759 20.3248C13.1473 20.9191 13.2475 21.5775 13.3469 22.0714C13.4467 22.4989 13.6421 22.8606 13.0605 22.7972C12.5042 21.5815 12.2046 19.9014 12.4842 17.7247C13.1313 12.3152 16.4065 8.83517 20.4666 6.83319C15.3056 8.31389 11.1562 11.6017 8.72786 16.3623C7.387 19.0397 6.69153 21.8137 6.57783 24.4844C6.48714 25.9014 6.5921 27.2535 6.88916 28.3719L16.5478 28.3165L16.552 29.1072L7.05466 29.1616C7.68994 32.916 9.54638 35.7732 11.435 38.2358C11.4323 37.8407 11.4292 37.3775 11.4902 36.8168C21.4744 36.8574 29.5488 36.7132 39.886 36.6859C39.9217 37.0481 39.9224 37.3113 39.9246 37.642C41.9471 35.2889 43.3853 32.5774 44.0424 28.9476C41.6532 28.9615 38.7774 29.0112 34.7715 29.0014L34.7672 28.2108C37.3844 28.196 41.1313 28.1406 44.2011 28.1554C44.3851 26.3418 44.4741 24.9558 44.2699 23.0792C43.7612 18.8289 41.9318 15.3779 39.4944 12.6576C37.4138 10.3609 34.8837 8.52975 31.7769 7.32887C31.323 7.13295 30.8382 6.97113 30.3525 6.87415C34.5945 8.63102 38.0434 13.0277 38.3646 18.564C38.437 20.0799 38.2839 21.5314 37.8711 22.6545C37.1279 22.8572 37.3843 22.3607 37.5741 21.7656C37.1275 22.6262 36.5471 22.8276 35.8345 22.6666L36.2521 22.1692L36.4438 21.6738C36.1224 22.1698 35.4816 22.8656 34.8017 22.6717C35.5747 22.1395 35.7982 21.7439 35.9226 21.1161C35.9226 21.1161 35.9545 20.9185 35.8271 21.1819C35.124 22.6376 34.0918 22.775 33.6065 22.6796C34.0249 22.4454 34.4116 22.2795 34.7006 21.8486C34.7638 21.7494 34.6995 21.7826 34.6995 21.7826C33.2515 22.7466 32.5401 22.7517 31.7642 22.6901C32.3777 22.4879 33.6017 21.9859 34.1134 20.8963C34.2084 20.6982 34.1123 20.8303 34.0811 20.8629C32.699 22.2894 30.9259 22.8922 27.8229 22.6792C27.982 22.1182 28.6961 22.5762 30.5341 22.1029C31.0177 21.9693 31.4687 21.8008 31.8547 21.6011C33.1757 20.902 33.9775 19.8758 33.9751 19.4142C33.0447 20.5071 31.4986 21.3727 30.0122 21.282C29.9475 21.2831 29.9486 21.3491 30.0133 21.348C30.8218 21.4754 30.1469 22.1059 28.5636 22.1816C28.7147 20.2022 29.0626 18.98 30.0242 17.6559L29.9923 17.624C29.6715 17.955 29.4784 18.1534 29.2855 18.4521C29.2822 17.826 29.28 17.4952 29.505 17.0993L29.6661 17.197C30.4411 17.0942 31.0195 16.4634 31.7927 16.0314C31.7927 16.0314 31.7926 15.9312 31.7593 15.9319C31.0185 16.2988 30.4715 16.829 29.666 16.9982C29.4384 16.8018 29.3078 16.6379 29.275 16.4414C29.2421 16.2756 29.3355 15.6497 29.3032 15.6162C29.303 15.584 29.2065 15.684 29.1458 16.3756C28.9838 16.3428 29.0113 15.4532 29.1055 14.9918C29.1374 14.7943 29.4266 14.693 29.6201 14.5267C29.8764 14.3276 30.1044 14.4576 30.4927 14.5886C30.5561 14.6201 30.4926 14.6872 30.3959 14.687C30.2346 14.6878 30.1045 14.6564 30.1049 14.6885C30.1055 14.8209 30.6237 14.9835 30.4615 15.0493C30.3656 15.0829 30.1394 14.9848 29.9447 14.9543C29.8161 15.0209 30.3025 15.381 30.1092 15.3807C30.0115 15.3825 29.9144 15.1514 29.6231 15.1207C29.5906 15.1858 29.8811 15.2508 29.9153 15.316C29.948 15.3816 29.882 15.4153 29.8186 15.3837C29.624 15.2852 29.3982 15.4179 29.2043 15.3534C29.3991 15.5827 29.5592 15.3851 29.7546 15.4493C29.8515 15.4817 29.9485 15.5141 29.9802 15.4151C30.0444 15.4804 30.1098 15.5131 30.2057 15.4795C30.3031 15.4455 30.2376 15.282 30.0108 15.0514C30.2054 15.1499 30.4305 15.182 30.528 15.148C30.6882 15.0811 30.5579 14.9494 30.2341 14.7544C30.6878 14.8501 30.6855 14.5874 30.4593 14.4893C30.5543 14.2911 30.8781 14.2566 30.8115 13.9591C30.9086 13.8929 30.9089 13.9932 31.0059 13.9574C31.0715 14.0902 30.8121 14.0914 30.9745 14.1565C31.0714 14.1888 31.168 13.9902 31.1666 13.892C31.0696 13.8597 30.6818 13.9596 30.6163 13.7961C30.6821 13.7624 30.9721 13.695 30.7771 13.5642C30.7126 13.6961 30.6171 13.7619 30.4881 13.7962C30.4866 13.4993 30.3567 13.3691 30.2262 13.1065C30.6432 12.7741 30.9996 12.8053 31.3568 13.0995C31.3576 13.3627 31.0681 13.5625 31.1003 13.6946C31.1979 13.5619 31.3909 13.4621 31.4532 13.1983C31.6805 13.2945 31.6829 13.7559 31.5565 14.1532C31.103 14.1883 30.9438 14.6185 30.8495 15.0799C30.5592 15.1152 30.4646 15.3456 30.4646 15.3456C30.4969 15.379 30.7542 15.2459 30.9158 15.2772C31.0401 14.5186 31.395 14.2528 31.9769 14.3484C32.0097 14.3154 32.1365 14.1491 31.7493 14.1521C31.7801 13.8885 31.7465 13.5582 31.6485 13.3612C31.9394 13.4583 32.166 13.4901 32.3273 13.4892C32.3628 13.95 32.8841 14.9359 32.9143 14.54C33.1914 12.0003 32.2135 10.3247 30.6899 9.34553C30.5914 9.31364 30.3968 9.21514 30.6575 9.41062C32.0534 10.5904 32.7071 12.0694 32.6537 14.047C32.4248 13.4551 32.5206 13.1921 32.4193 12.697C32.2577 12.6657 32.16 12.5996 31.9356 12.6012C31.8361 12.2059 31.7363 11.7784 31.1545 11.6828C30.5734 11.621 30.1869 11.8871 29.994 12.1178C29.8936 11.5579 29.7295 11.1637 29.4045 10.704C28.7205 9.71947 27.6855 9.36325 26.7759 8.64226ZM21.7341 14.0453L21.8314 14.1098L21.5766 14.6058L21.447 14.5077L21.7341 14.0453ZM41.2426 13.2391C41.7953 13.9953 42.3176 14.8484 42.8071 15.7039L43.2572 15.3707C42.7999 14.5487 42.442 13.9912 42.018 13.3672L42.7266 12.8682C43.1512 13.6246 43.5085 14.1177 43.933 14.9047L44.383 14.6396L43.1766 12.6031L43.5959 12.304C43.8563 12.6968 44.5721 13.7812 44.8341 14.3724L45.3165 14.0727C44.6982 12.9236 44.2729 12.3322 43.6553 11.4463L41.2426 13.2391ZM37.2016 7.06573C36.9447 7.42984 36.9142 7.49615 36.1718 7.66467C36.3988 7.79658 36.5933 7.92572 36.7552 8.05719L36.2743 8.65387C35.2681 7.90209 33.7134 7.08619 32.7095 6.59718L33.0295 6.00302C34.0004 6.42482 34.9084 6.94744 35.783 7.46924C36.299 7.30116 36.4612 7.2354 36.6526 6.9372L36.9404 6.44038C35.805 5.62281 35.0277 5.16555 33.7321 4.61366L34.0514 3.98572C35.347 4.53762 36.255 5.06026 37.3248 5.81293C37.6493 6.04165 37.7479 6.27237 37.4585 6.70161L37.2016 7.06573ZM23.6387 2.00201C23.637 1.80367 23.5713 1.73877 23.4747 1.73861L22.796 1.80941L22.8326 2.33616L23.1548 2.30218L23.1907 2.99392C24.354 2.95409 25.6143 2.94663 26.6474 2.97379C26.97 2.972 26.8742 3.13635 26.8766 3.36848C26.8766 3.36848 25.8112 3.60526 25.1662 3.73973C24.7785 3.80901 24.3936 4.07475 24.3955 4.60267L24.3985 5.12859C24.6241 5.09435 24.9151 5.09281 25.2065 5.12346C25.2375 4.96022 25.2685 4.82744 25.2027 4.56378L24.7504 4.56621C24.7495 4.40162 24.7817 4.2363 25.5236 4.13419L27.4286 3.89205L27.4877 3.00212C27.5163 2.40789 27.3877 2.37586 26.9031 2.34484C25.9013 2.2851 24.5448 2.2941 23.6406 2.33113L23.6387 2.00201ZM13.1897 5.45829C13.0603 5.26169 12.9949 5.229 12.8994 5.29481C12.674 5.42919 12.5129 5.5609 12.3522 5.69421L12.6456 6.15422L12.935 5.95436L13.2936 6.54565C14.2603 5.94738 15.386 5.31483 16.2875 4.81467C16.5776 4.64857 16.5785 4.8131 16.6766 5.04229C16.6766 5.04229 15.8418 5.77192 15.3585 6.20444C15.0382 6.46902 14.8139 6.89878 15.1073 7.35879L15.3684 7.78536L16.0434 7.35359L15.7836 6.89441L15.3971 7.1605C15.2995 6.99577 15.2655 6.83195 15.8455 6.39959L17.4208 5.20291L17.0294 4.41515C16.7681 3.88842 16.6391 3.92278 16.22 4.12325C15.3178 4.58963 14.1262 5.25589 13.3537 5.72171L13.1897 5.45829Z" fill="#0900BD"/>
</svg>
