<svg width="43" height="80" viewBox="0 0 43 80" fill="none" xmlns="http://www.w3.org/2000/svg">
<g opacity="0.8">
<path opacity="0.85" d="M32.7487 57.2874L37.6002 64.6514L40.8507 60.4232L36.7707 52.0449L32.7487 57.2874Z" fill="#0900BD"/>
</g>
<g opacity="0.6">
<path opacity="0.6" d="M9.65781 58.8286L0.253662 70.5231V79.1208L8.93924 70.4841L9.65781 58.8286Z" fill="#0900BD"/>
</g>
<path opacity="0.45" d="M17.837 48.5684L18.3579 61.1992L28.6542 51.0555L22.8622 42.2627L17.8419 48.5635L17.837 48.5684Z" fill="#0900BD"/>
<g opacity="0.8">
<path opacity="0.75" d="M28.5337 35.1475L22.8574 42.2627L28.6542 51.0555L33.8193 45.969L28.5337 35.1475Z" fill="#0900BD"/>
</g>
<g opacity="0.4">
<path d="M42.7363 44.2958L40.3973 39.4824L33.8192 45.9685L36.7755 52.0498L42.7411 44.2958H42.7363Z" fill="#0900BD"/>
</g>
<path d="M32.7487 57.2887L36.7707 52.0462L33.8145 45.9648L28.6494 51.0562L32.7487 57.2887Z" fill="#0900BD"/>
<path opacity="0.45" d="M16.3228 17.0103H12.1946L9.66272 58.8236L17.8419 48.5678L16.3276 17.0103H16.3228Z" fill="#0900BD"/>
<g opacity="0.85">
<path d="M9.65778 58.8301L8.93921 70.4855L18.3578 61.2002L17.837 48.5693L9.65778 58.8252V58.8301Z" fill="#0900BD"/>
</g>
<path d="M15.5366 3.79928L13.8197 0.224609C13.8197 0.224609 10.1545 5.89141 10.1545 8.09571C10.1545 11.5924 11.7798 13.8942 11.7798 13.8942H16.8098L17.6971 8.40782H14.4708L15.5366 3.79928Z" fill="#0900BD"/>
</svg>
